<?xml version="1.0" encoding="UTF-8" standalone="no"?>
<svg
   xmlns:dc="http://purl.org/dc/elements/1.1/"
   xmlns:cc="http://creativecommons.org/ns#"
   xmlns:rdf="http://www.w3.org/1999/02/22-rdf-syntax-ns#"
   xmlns:svg="http://www.w3.org/2000/svg"
   xmlns="http://www.w3.org/2000/svg"
   xmlns:sodipodi="http://sodipodi.sourceforge.net/DTD/sodipodi-0.dtd"
   xmlns:inkscape="http://www.inkscape.org/namespaces/inkscape"
   width="32"
   height="32"
   fill="#ffffff"
   class="bi bi-house-add-fill"
   viewBox="0 0 32 32"
   version="1.1"
   id="svg64"
   sodipodi:docname="house-add-fill.svg"
   inkscape:version="1.0.2-2 (e86c870879, 2021-01-15)">
  <metadata
     id="metadata70">
    <rdf:RDF>
      <cc:Work
         rdf:about="">
        <dc:format>image/svg+xml</dc:format>
        <dc:type
           rdf:resource="http://purl.org/dc/dcmitype/StillImage" />
      </cc:Work>
    </rdf:RDF>
  </metadata>
  <defs
     id="defs68" />
  <sodipodi:namedview
     pagecolor="#ffffff"
     bordercolor="#666666"
     borderopacity="1"
     objecttolerance="10"
     gridtolerance="10"
     guidetolerance="10"
     inkscape:pageopacity="0"
     inkscape:pageshadow="2"
     inkscape:window-width="1920"
     inkscape:window-height="1046"
     id="namedview66"
     showgrid="false"
     inkscape:zoom="26.875"
     inkscape:cx="9.0395502"
     inkscape:cy="9.7138775"
     inkscape:window-x="-11"
     inkscape:window-y="-11"
     inkscape:window-maximized="1"
     inkscape:current-layer="svg64" />
  <path
     d="m 25,32 a 7,7 0 1 0 0,-14 7,7 0 0 0 0,14 m 1,-10 v 2 h 2 a 1,1 0 0 1 0,2 h -2 v 2 a 1,1 0 1 1 -2,0 v -2 h -2 a 1,1 0 1 1 0,-2 h 2 v -2 a 1,1 0 0 1 2,0"
     id="path58"
     style="stroke-width:2" />
  <path
     d="M 17.414,3 A 2,2 0 0 0 14.586,3 L 1.292,16.292 a 1.0012632,1.0012632 0 0 0 1.416,1.416 L 16,4.414 29.292,17.708 a 1.0012632,1.0012632 0 0 0 1.416,-1.416 L 26,11.586 V 5 A 1,1 0 0 0 25,4 h -2 a 1,1 0 0 0 -1,1 v 2.586 z"
     id="path60"
     style="stroke-width:2" />
  <path
     d="m 16,6.586 9.424,9.424 A 9,9 0 0 0 17.516,30 H 7 A 3,3 0 0 1 4,27 v -8.414 z"
     id="path62"
     style="stroke-width:2" />
  <rect
     style="fill:#ff0000;fill-opacity:0;stroke:none;stroke-width:15.8715;stroke-linecap:square"
     id="rect72"
     width="32"
     height="32"
     x="0"
     y="0" />
</svg>
