<?xml version="1.0" encoding="UTF-8" standalone="no"?>
<svg
   xmlns:dc="http://purl.org/dc/elements/1.1/"
   xmlns:cc="http://creativecommons.org/ns#"
   xmlns:rdf="http://www.w3.org/1999/02/22-rdf-syntax-ns#"
   xmlns:svg="http://www.w3.org/2000/svg"
   xmlns="http://www.w3.org/2000/svg"
   xmlns:sodipodi="http://sodipodi.sourceforge.net/DTD/sodipodi-0.dtd"
   xmlns:inkscape="http://www.inkscape.org/namespaces/inkscape"
   width="32"
   height="31.998999"
   fill="#ffffff"
   class="bi bi-pencil-fill"
   viewBox="0 0 32 31.998999"
   version="1.1"
   id="svg36"
   sodipodi:docname="pencil-fill.svg"
   inkscape:version="1.0.2-2 (e86c870879, 2021-01-15)">
  <metadata
     id="metadata42">
    <rdf:RDF>
      <cc:Work
         rdf:about="">
        <dc:format>image/svg+xml</dc:format>
        <dc:type
           rdf:resource="http://purl.org/dc/dcmitype/StillImage" />
      </cc:Work>
    </rdf:RDF>
  </metadata>
  <defs
     id="defs40" />
  <sodipodi:namedview
     pagecolor="#ffffff"
     bordercolor="#666666"
     borderopacity="1"
     objecttolerance="10"
     gridtolerance="10"
     guidetolerance="10"
     inkscape:pageopacity="0"
     inkscape:pageshadow="2"
     inkscape:window-width="1920"
     inkscape:window-height="1046"
     id="namedview38"
     showgrid="false"
     inkscape:zoom="2.2207572"
     inkscape:cx="119.68264"
     inkscape:cy="-29.66703"
     inkscape:window-x="-11"
     inkscape:window-y="-11"
     inkscape:window-maximized="1"
     inkscape:current-layer="svg36" />
  <path
     d="m 25.706485,0.29277256 a 0.9999563,0.9999563 0 0 0 -1.413936,0 l -3.293856,3.29385594 7.413675,7.4136765 3.293857,-3.2918567 a 0.9999563,0.9999563 0 0 0 0,-1.415938 z M 26.99843,12.414243 19.584755,5.0005668 6.5853232,17.999999 h 0.413982 a 0.9999563,0.9999563 0 0 1 0.9999565,0.999956 v 0.999956 h 0.999956 a 0.9999563,0.9999563 0 0 1 0.9999565,0.999957 v 0.999956 H 10.99913 a 0.9999563,0.9999563 0 0 1 0.999957,0.999956 v 0.999957 h 0.999956 a 0.9999563,0.9999563 0 0 1 0.999956,0.999956 v 0.413982 z M 12.063084,27.34959 a 0.9999563,0.9999563 0 0 1 -0.064,-0.349985 V 25.999648 H 10.99913 A 0.9999563,0.9999563 0 0 1 9.9991742,24.999693 V 23.999737 H 8.9992177 A 0.9999563,0.9999563 0 0 1 7.9992617,22.99978 V 21.999824 H 6.9993052 A 0.9999563,0.9999563 0 0 1 5.9993492,20.999868 V 19.999911 H 4.9993927 a 0.9999563,0.9999563 0 0 1 -0.3499847,-0.064 L 4.2914237,20.291899 A 0.9999563,0.9999563 0 0 0 4.0714332,20.627884 L 0.07160808,30.627448 A 0.9999563,0.9999563 0 0 0 1.3715512,31.92739 l 9.9995628,-3.999825 a 0.9999563,0.9999563 0 0 0 0.335985,-0.21999 z"
     id="path34"
     style="stroke-width:1.99992" />
</svg>
